<svg xmlns="http://www.w3.org/2000/svg" viewBox="0 0 320 370" width="320" height="370">
  
  <defs>
    <clipPath id="hx"><path d="M 160 6 L 308 92.5 L 308 277.5 L 160 364 L 12 277.5 L 12 92.5 Z"></path></clipPath>
  </defs>

  <g clip-path="url(#hx)">
    <rect width="320" height="370" fill="#C9582A"></rect>
    <g fill="none" stroke-width="1.7" stroke-linecap="round">
      <path d="M 20 310 C 45 310 60 115 95 120 C 140 125 215 240 300 265" stroke="#F2EBDD" opacity="0.45"></path>
      <path d="M 20 315 C 55 310 105 148 145 152 C 195 157 255 228 300 245" stroke="#232020" opacity="0.3"></path>
      <path d="M 20 318 C 75 310 155 188 200 192 C 250 196 285 215 300 220" stroke="#D89968" opacity="0.7"></path>
    </g>
  </g>

  <path d="M 160 6 L 308 92.5 L 308 277.5 L 160 364 L 12 277.5 L 12 92.5 Z" fill="none" stroke="#232020" stroke-width="3"></path>
  <path d="M 160 18 L 297 98.5 L 297 271.5 L 160 352 L 23 271.5 L 23 98.5 Z" fill="none" stroke="#F2EBDD" stroke-width="1" opacity="0.55"></path>

  <text x="56" y="98" font-family="&#39;JetBrains Mono&#39;, monospace" font-size="16" font-weight="600" fill="#232020">26</text>
  <text x="264" y="98" font-family="&#39;JetBrains Mono&#39;, monospace" font-size="13" font-weight="500" fill="#F2EBDD" text-anchor="end">2026</text>

  <text x="160" y="208" font-family="&#39;JetBrains Mono&#39;, monospace" font-size="68" font-weight="700" text-anchor="middle" letter-spacing="-4">
    <tspan fill="#232020">Fe</tspan><tspan fill="#F2EBDD" dx="4">·</tspan><tspan fill="#F2EBDD" dx="4">R</tspan><tspan fill="#F2EBDD" font-style="italic">x</tspan>
  </text>

  <text x="160" y="252" font-family="&#39;JetBrains Mono&#39;, monospace" font-size="22" font-weight="600" text-anchor="middle" letter-spacing="-0.5">
    <tspan fill="#232020">fer</tspan><tspan fill="#F2EBDD" font-style="italic">x</tspan>
  </text>

  <text x="160" y="276" font-family="&#39;JetBrains Mono&#39;, monospace" font-size="9" fill="#232020" text-anchor="middle" letter-spacing="2.2" opacity="0.75">open-source nlme</text>

</svg>